<?xml version="1.0" encoding="UTF-8"?>
<!DOCTYPE svg PUBLIC "-//W3C//DTD SVG 1.1//EN" "http://www.w3.org/Graphics/SVG/1.1/DTD/svg11.dtd">
<svg xmlns="http://www.w3.org/2000/svg" version="1.1" width="595px" height="595px" style="shape-rendering:geometricPrecision; text-rendering:geometricPrecision; image-rendering:optimizeQuality; fill-rule:evenodd; clip-rule:evenodd" xmlns:xlink="http://www.w3.org/1999/xlink">
<g><path style="opacity:0.974" fill="#fefffe" d="M 303.5,53.5 C 306.044,53.1043 308.211,53.771 310,55.5C 319.333,70.1667 328.667,84.8333 338,99.5C 339.738,104.022 340.904,108.689 341.5,113.5C 340.237,120.284 338.571,126.951 336.5,133.5C 376.733,136.522 414.733,147.356 450.5,166C 460.483,172.239 470.65,178.072 481,183.5C 483.188,183.646 484.521,182.646 485,180.5C 483.535,173.485 484.535,166.818 488,160.5C 495.18,152.701 503.347,151.535 512.5,157C 518.491,162.484 521.657,169.317 522,177.5C 526.728,205.413 515.228,221.579 487.5,226C 503.189,259.878 519.022,293.712 535,327.5C 545.937,357.244 540.103,383.077 517.5,405C 501.475,416.276 483.641,421.109 464,419.5C 417.705,422.1 392.872,400.266 389.5,354C 389.978,346.296 391.478,338.796 394,331.5C 408.479,292.376 426.313,254.876 447.5,219C 412.861,190.062 372.861,175.896 327.5,176.5C 339.096,240.076 350.263,303.743 361,367.5C 361.723,375.542 361.39,383.542 360,391.5C 355.606,407.015 350.606,422.348 345,437.5C 342.301,449.738 345.467,460.238 354.5,469C 369.167,478.667 383.833,488.333 398.5,498C 404.492,502.982 409.326,508.815 413,515.5C 415.085,526.167 410.918,533 400.5,536C 338.833,536.667 277.167,536.667 215.5,536C 206.913,534.192 202.247,528.859 201.5,520C 201.864,515.697 203.364,511.863 206,508.5C 221.112,492.867 238.278,480.033 257.5,470C 266.371,461.72 269.871,451.553 268,439.5C 263,425.833 258,412.167 253,398.5C 250.81,390.484 249.644,382.318 249.5,374C 258.753,307.898 268.753,241.898 279.5,176C 279.245,174.674 278.578,173.674 277.5,173C 260.79,168.074 245.123,170.407 230.5,180C 225.5,183.667 220.5,187.333 215.5,191C 209.067,198.523 202.4,205.856 195.5,213C 187.136,219.18 177.803,223.18 167.5,225C 182.855,258.212 198.355,291.378 214,324.5C 226.77,352.705 223.437,378.705 204,402.5C 187.143,417.139 167.477,423.472 145,421.5C 104.112,424.909 79.7782,406.576 72,366.5C 70.2978,352.304 72.2978,338.637 78,325.5C 92.5658,289.536 109.399,254.703 128.5,221C 119.211,214.371 112.044,205.871 107,195.5C 103.062,186.38 103.062,177.38 107,168.5C 119.524,160.485 130.191,162.485 139,174.5C 140.467,179.429 142.467,184.096 145,188.5C 150.249,193.501 155.749,193.668 161.5,189C 172.466,173.039 186.799,161.039 204.5,153C 226.537,143.559 249.537,138.392 273.5,137.5C 271.778,131.832 269.944,126.165 268,120.5C 266.965,113.645 267.632,106.978 270,100.5C 280.998,84.6761 292.164,69.0094 303.5,53.5 Z M 450.5,219.5 C 454.615,221.261 458.782,222.928 463,224.5C 463.29,266.834 463.124,309.167 462.5,351.5C 439.167,351.5 415.833,351.5 392.5,351.5C 395.756,334.899 400.922,318.899 408,303.5C 420.871,274.757 435.038,246.757 450.5,219.5 Z M 131.5,221.5 C 135.574,223.603 139.907,224.936 144.5,225.5C 144.702,268.173 144.369,310.84 143.5,353.5C 120.164,353.667 96.831,353.5 73.5,353C 76.9204,337.738 81.7537,322.905 88,308.5C 101.472,278.889 115.972,249.889 131.5,221.5 Z M 466.5,224.5 C 472.609,225.576 478.609,226.243 484.5,226.5C 500.43,260.457 516.263,294.457 532,328.5C 534.934,335.904 536.768,343.571 537.5,351.5C 513.5,351.5 489.5,351.5 465.5,351.5C 465.496,309.163 465.829,266.83 466.5,224.5 Z M 161.5,225.5 C 164.595,225.626 166.428,227.293 167,230.5C 181.726,262.953 196.726,295.287 212,327.5C 215.916,335.745 218.083,344.412 218.5,353.5C 194.5,353.5 170.5,353.5 146.5,353.5C 147.095,311.169 147.428,268.836 147.5,226.5C 152.363,226.819 157.03,226.486 161.5,225.5 Z"/></g>
</svg>
