<?xml version="1.0" encoding="UTF-8"?>
<!DOCTYPE svg PUBLIC "-//W3C//DTD SVG 1.1//EN" "http://www.w3.org/Graphics/SVG/1.1/DTD/svg11.dtd">
<svg xmlns="http://www.w3.org/2000/svg" version="1.1" width="595px" height="595px" style="shape-rendering:geometricPrecision; text-rendering:geometricPrecision; image-rendering:optimizeQuality; fill-rule:evenodd; clip-rule:evenodd" xmlns:xlink="http://www.w3.org/1999/xlink">
<g><path style="opacity:0.983" fill="#fefffe" d="M 211.5,54.5 C 230.948,71.3443 238.115,92.3443 233,117.5C 226.861,121.48 221.028,125.813 215.5,130.5C 218.64,139.255 221.973,147.921 225.5,156.5C 245.451,136.026 269.451,123.192 297.5,118C 292.826,126.349 288.16,134.683 283.5,143C 292.373,166.108 295.539,189.941 293,214.5C 290.617,229.765 284.117,242.931 273.5,254C 260.167,264.667 246.833,275.333 233.5,286C 196.103,290.729 158.769,294.896 121.5,298.5C 117.268,290.706 113.601,282.706 110.5,274.5C 117.896,274.8 125.229,274.3 132.5,273C 121.3,265.636 109.967,258.469 98.5,251.5C 93.681,224.085 89.3476,196.585 85.5,169C 85.8333,167.833 86.1667,166.667 86.5,165.5C 108.713,179.399 131.379,192.399 154.5,204.5C 154.577,200.206 155.244,196.039 156.5,192C 152.079,191.583 147.746,190.75 143.5,189.5C 150.173,183.991 156.673,178.324 163,172.5C 179.067,144.755 194.734,116.755 210,88.5C 210.209,77.1212 210.709,65.7879 211.5,54.5 Z"/></g>
<g><path style="opacity:0.981" fill="#fefffe" d="M 406.5,54.5 C 408.316,65.4557 409.149,76.789 409,88.5C 424.913,117.329 441.08,145.995 457.5,174.5C 463.525,179.53 469.525,184.53 475.5,189.5C 471.607,190.815 467.607,191.482 463.5,191.5C 463.372,196.406 464.206,201.073 466,205.5C 488.036,191.968 510.202,178.635 532.5,165.5C 532.833,166.667 533.167,167.833 533.5,169C 529.452,196.504 525.452,224.004 521.5,251.5C 466.092,258.01 410.759,264.51 355.5,271C 348.571,264.615 341.738,258.115 335,251.5C 329.752,245.004 326.085,237.67 324,229.5C 316.925,199.283 321.092,170.783 336.5,144C 331.546,135.241 326.879,126.408 322.5,117.5C 350.6,123.46 374.433,136.794 394,157.5C 397.027,148.613 400.194,139.78 403.5,131C 398.213,125.923 392.38,121.423 386,117.5C 381.817,101.256 384.151,85.9223 393,71.5C 397.333,65.6705 401.833,60.0038 406.5,54.5 Z"/></g>
<g><path style="opacity:0.974" fill="#fefffe" d="M 522.5,267.5 C 532.19,267.168 541.856,267.502 551.5,268.5C 529.333,304.167 507.167,339.833 485,375.5C 483.758,377.541 481.925,378.707 479.5,379C 366.807,391.651 254.14,404.484 141.5,417.5C 139.372,416.946 137.872,415.613 137,413.5C 117.625,382.582 98.125,351.749 78.5,321C 226.539,302.386 374.539,284.552 522.5,267.5 Z M 397.5,299.5 C 404.508,299.334 411.508,299.5 418.5,300C 430.989,302.497 434.822,309.664 430,321.5C 426.079,328.557 420.246,333.39 412.5,336C 401.796,339.577 390.796,341.577 379.5,342C 375.999,351.002 372.999,360.169 370.5,369.5C 365.093,369.676 359.76,370.343 354.5,371.5C 354.167,371 353.833,370.5 353.5,370C 360.167,349.333 366.833,328.667 373.5,308C 374.444,306.523 375.777,305.523 377.5,305C 384.208,302.826 390.875,300.993 397.5,299.5 Z M 350.5,306.5 C 355.511,306.334 360.511,306.501 365.5,307C 349.377,330.08 333.377,353.246 317.5,376.5C 312.208,377.495 306.875,377.828 301.5,377.5C 298.275,355.817 294.942,334.15 291.5,312.5C 295.853,311.941 300.186,311.275 304.5,310.5C 307.534,325.677 311.201,340.677 315.5,355.5C 327.422,339.313 339.088,322.98 350.5,306.5 Z M 280.5,319.5 C 278.347,341.738 275.181,364.071 271,386.5C 265.912,385.235 260.746,384.235 255.5,383.5C 257.674,372.469 260.008,361.469 262.5,350.5C 262.167,350.167 261.833,349.833 261.5,349.5C 253.184,356.648 245.018,363.981 237,371.5C 230.35,365.684 223.85,359.684 217.5,353.5C 214.058,365.274 211.224,377.274 209,389.5C 203.259,390.475 197.425,390.808 191.5,390.5C 196.718,367.625 202.552,344.958 209,322.5C 219.35,332.351 229.85,342.017 240.5,351.5C 254.165,341.159 267.499,330.493 280.5,319.5 Z"/></g>
<g><path style="opacity:0.927" fill="#fefffe" d="M 390.5,313.5 C 397.921,313.109 405.254,313.609 412.5,315C 416.751,322.55 414.751,327.217 406.5,329C 398.208,330.184 389.875,330.684 381.5,330.5C 381.45,325.448 381.95,320.448 383,315.5C 385.607,314.877 388.107,314.21 390.5,313.5 Z"/></g>
<g><path style="opacity:0.983" fill="#fefffe" d="M 477.5,394.5 C 479.199,394.34 480.866,394.506 482.5,395C 469.153,396.65 464.32,403.816 468,416.5C 470.62,422.914 474.12,428.747 478.5,434C 483.439,435.608 488.273,437.441 493,439.5C 497.97,449.94 502.804,460.44 507.5,471C 506.708,472.96 505.375,474.46 503.5,475.5C 508.624,482.914 513.624,490.414 518.5,498C 511.563,497.538 504.73,496.372 498,494.5C 495.597,496.305 493.93,498.638 493,501.5C 491.457,503.378 489.624,504.878 487.5,506C 478.139,509.616 468.472,510.949 458.5,510C 456.238,504.473 452.571,500.14 447.5,497C 427.951,486.297 407.284,482.964 385.5,487C 383.035,487.632 381.369,489.132 380.5,491.5C 386.843,502.68 395.176,512.18 405.5,520C 413.5,526.333 421.5,532.667 429.5,539C 400.802,535.733 375.968,524.233 355,504.5C 340.461,510.649 325.294,513.316 309.5,512.5C 293.706,513.316 278.539,510.649 264,504.5C 243.083,524.259 218.249,535.759 189.5,539C 206.205,527.298 221.372,513.798 235,498.5C 236.167,496.167 237.333,493.833 238.5,491.5C 237.631,489.132 235.965,487.632 233.5,487C 211.155,482.78 190.155,486.447 170.5,498C 165.996,500.996 162.663,504.996 160.5,510C 150.528,510.949 140.861,509.616 131.5,506C 129.391,504.859 127.558,503.359 126,501.5C 125.654,499.152 124.487,497.319 122.5,496C 115.896,495.794 109.396,496.627 103,498.5C 102.5,498.167 102,497.833 101.5,497.5C 106.935,489.895 112.935,482.728 119.5,476C 117.627,473.791 115.46,471.958 113,470.5C 112.333,469.5 112.333,468.5 113,467.5C 121.05,457.785 128.716,447.785 136,437.5C 137.543,435.622 139.376,434.122 141.5,433C 253.685,420.48 365.685,407.647 477.5,394.5 Z"/></g>
</svg>
