<?xml version="1.0" encoding="UTF-8"?>
<!DOCTYPE svg PUBLIC "-//W3C//DTD SVG 1.1//EN" "http://www.w3.org/Graphics/SVG/1.1/DTD/svg11.dtd">
<svg xmlns="http://www.w3.org/2000/svg" version="1.1" width="595px" height="595px" style="shape-rendering:geometricPrecision; text-rendering:geometricPrecision; image-rendering:optimizeQuality; fill-rule:evenodd; clip-rule:evenodd" xmlns:xlink="http://www.w3.org/1999/xlink">
<g><path style="opacity:0.84" fill="#fefffe" d="M 239.5,118.5 C 239.791,117.351 240.624,116.684 242,116.5C 248.98,114.149 256.146,112.649 263.5,112C 282.167,111.333 300.833,111.333 319.5,112C 330.892,114.253 342.059,117.087 353,120.5C 360.924,124.525 369.09,128.025 377.5,131C 387.223,137.52 396.889,144.02 406.5,150.5C 407.802,153.634 410.135,155.468 413.5,156C 414.26,157.441 414.926,158.941 415.5,160.5C 400.93,174.614 386.597,188.947 372.5,203.5C 365.914,208.513 359.747,213.847 354,219.5C 349.278,215.232 343.945,211.565 338,208.5C 331.416,205.441 324.916,202.441 318.5,199.5C 326.089,172.546 333.423,145.546 340.5,118.5C 337.545,117.841 334.545,117.508 331.5,117.5C 326.399,144.688 320.399,171.688 313.5,198.5C 311.693,199.799 310.027,199.632 308.5,198C 294.063,195.882 279.73,196.382 265.5,199.5C 260.134,171.95 254.134,144.616 247.5,117.5C 244.873,118.092 242.206,118.425 239.5,118.5 Z M 280.5,132.5 C 286.162,132.199 291.495,133.366 296.5,136C 298.213,137.378 299.547,139.045 300.5,141C 299.552,141.483 298.552,141.649 297.5,141.5C 297.5,142.833 297.5,144.167 297.5,145.5C 300.205,145.38 300.872,146.38 299.5,148.5C 297.488,150.341 295.155,151.341 292.5,151.5C 292.579,149.334 293.246,147.334 294.5,145.5C 292.85,143.05 291.683,140.383 291,137.5C 287.311,135.81 283.811,134.144 280.5,132.5 Z M 268.5,143.5 C 269.028,142.279 269.695,141.113 270.5,140C 274.049,138.345 277.715,137.178 281.5,136.5C 281.281,137.675 281.614,138.675 282.5,139.5C 286.383,138.504 289.05,140.004 290.5,144C 289.212,155.086 283.879,157.753 274.5,152C 273.556,149.281 273.223,146.448 273.5,143.5C 277.149,144.237 280.483,145.57 283.5,147.5C 280.14,140.409 275.14,139.076 268.5,143.5 Z M 302.5,138.5 C 303.117,138.611 303.617,138.944 304,139.5C 304.287,141.891 304.787,144.224 305.5,146.5C 305,147.5 304.5,148.5 304,149.5C 302.585,146.042 302.085,142.375 302.5,138.5 Z M 268.5,143.5 C 268.217,144.289 267.717,144.956 267,145.5C 266.472,144.184 266.972,143.517 268.5,143.5 Z M 352.5,147.5 C 361.46,148.759 370.46,149.925 379.5,151C 377.577,151.808 375.577,152.308 373.5,152.5C 368.524,151.502 363.524,151.335 358.5,152C 356.296,154.772 354.963,157.938 354.5,161.5C 353.167,162.833 351.833,162.833 350.5,161.5C 347.497,156.197 348.163,151.531 352.5,147.5 Z M 300.5,151.5 C 301.643,151.908 302.643,152.575 303.5,153.5C 304.077,156.976 305.077,160.309 306.5,163.5C 307.736,164.246 309.07,164.579 310.5,164.5C 310.785,166.288 310.452,167.955 309.5,169.5C 307.42,170.331 305.42,171.331 303.5,172.5C 298.983,170.863 294.317,169.863 289.5,169.5C 287.87,168.579 286.203,167.745 284.5,167C 283.859,164.87 282.526,163.37 280.5,162.5C 280.167,163 279.833,163.5 279.5,164C 280.829,165.66 281.829,167.493 282.5,169.5C 281.998,170.521 281.332,170.688 280.5,170C 279.252,168.041 277.585,166.541 275.5,165.5C 274.345,162.554 274.179,159.554 275,156.5C 281.207,159.407 286.707,158.407 291.5,153.5C 293.356,154.276 294.689,155.609 295.5,157.5C 298.202,158.522 300.869,159.522 303.5,160.5C 303.714,158.856 303.38,157.356 302.5,156C 300.212,155.178 297.878,154.511 295.5,154C 297.653,153.901 299.319,153.067 300.5,151.5 Z M 359.5,154.5 C 362.346,154.59 364.679,155.756 366.5,158C 365.383,159.892 363.716,160.725 361.5,160.5C 361.33,161.822 361.663,162.989 362.5,164C 364.218,164.346 365.885,164.846 367.5,165.5C 367.997,163.784 368.331,162.117 368.5,160.5C 369.443,163.968 371.443,166.635 374.5,168.5C 375.452,170.045 375.785,171.712 375.5,173.5C 371.381,174.306 367.548,173.306 364,170.5C 362.101,170.898 360.601,171.898 359.5,173.5C 362.111,174.38 364.778,175.046 367.5,175.5C 368.932,175.733 369.432,176.4 369,177.5C 362.603,177.016 356.437,175.516 350.5,173C 349.953,172.075 349.287,171.242 348.5,170.5C 347.708,172.195 348.042,173.862 349.5,175.5C 352.92,178.474 356.92,179.974 361.5,180C 360.692,180.308 360.025,180.808 359.5,181.5C 361.727,183.607 363.727,185.94 365.5,188.5C 354.282,192.2 345.615,189.2 339.5,179.5C 337.096,170.805 339.096,163.471 345.5,157.5C 347.326,164.888 351.659,166.888 358.5,163.5C 359.243,160.357 359.576,157.357 359.5,154.5 Z M 283.5,171.5 C 286.797,171.329 287.131,171.995 284.5,173.5C 283.702,173.043 283.369,172.376 283.5,171.5 Z"/></g>
<g><path style="opacity:0.828" fill="#fefffe" d="M 239.5,118.5 C 247.343,146.057 254.676,173.723 261.5,201.5C 255.623,203.239 249.957,205.572 244.5,208.5C 237.886,212.293 231.886,216.793 226.5,222C 225.552,222.483 224.552,222.649 223.5,222.5C 223.719,221.325 223.386,220.325 222.5,219.5C 203.832,200.499 184.832,181.832 165.5,163.5C 163.651,164.593 161.984,165.926 160.5,167.5C 160.167,167.167 159.833,166.833 159.5,166.5C 178.921,145.985 202.087,130.651 229,120.5C 232.402,119.274 235.902,118.607 239.5,118.5 Z M 225.5,187.5 C 209.835,191.382 200.502,185.216 197.5,169C 198.848,164.821 200.848,160.987 203.5,157.5C 202.833,157.167 202.167,156.833 201.5,156.5C 198.786,158.559 196.786,161.225 195.5,164.5C 191.508,166.507 188.175,169.174 185.5,172.5C 186.738,168.186 188.405,164.02 190.5,160C 192.063,157.94 194.063,156.44 196.5,155.5C 204.118,155.072 211.451,153.405 218.5,150.5C 221.419,151.64 224.419,152.473 227.5,153C 228.167,153.667 228.833,154.333 229.5,155C 227.512,155.18 225.512,155.014 223.5,154.5C 223.33,155.822 223.663,156.989 224.5,158C 227.047,158.354 229.381,158.02 231.5,157C 231.996,158.996 232.996,160.663 234.5,162C 231.881,162.151 229.547,162.985 227.5,164.5C 228.729,165.281 230.062,165.781 231.5,166C 226.183,170.675 221.183,170.342 216.5,165C 215.363,161.843 215.363,158.677 216.5,155.5C 215.5,155.5 214.5,155.5 213.5,155.5C 212.33,160.509 212.497,165.509 214,170.5C 216.781,171.947 219.281,173.78 221.5,176C 215.588,177.646 212.588,175.479 212.5,169.5C 211.5,169.5 210.5,169.5 209.5,169.5C 208.828,172.908 209.828,175.575 212.5,177.5C 213.992,184.449 218.325,187.783 225.5,187.5 Z M 234.5,167.5 C 236.639,171.249 236.973,175.249 235.5,179.5C 237.262,179.643 238.929,179.309 240.5,178.5C 242.444,179.189 244.444,179.689 246.5,180C 241.685,184.337 236.018,185.67 229.5,184C 229.696,178.019 231.362,172.519 234.5,167.5 Z M 225.5,187.5 C 226.172,186.733 227.005,186.066 228,185.5C 228.188,187.061 227.355,187.728 225.5,187.5 Z"/></g>
<g><path style="opacity:0.84" fill="#fefffe" d="M 465.5,241.5 C 464.25,241.423 463.417,240.756 463,239.5C 439.088,246.98 415.088,254.314 391,261.5C 387.875,262.256 384.709,262.589 381.5,262.5C 377.958,247.633 370.458,235.3 359,225.5C 358.333,224.167 358.333,222.833 359,221.5C 378.214,205.39 397.214,189.057 416,172.5C 417.602,170.605 419.102,168.605 420.5,166.5C 419.653,165.155 418.487,164.155 417,163.5C 416.251,162.365 416.417,161.365 417.5,160.5C 440.546,183.279 456.546,210.279 465.5,241.5 Z M 389.5,203.5 C 393.548,203.395 397.548,203.728 401.5,204.5C 401.808,209.791 402.808,214.958 404.5,220C 404.167,221.167 403.833,222.333 403.5,223.5C 400.407,224.764 397.74,226.597 395.5,229C 396.67,230.587 397.67,232.253 398.5,234C 399.793,234.49 401.127,234.657 402.5,234.5C 403.167,238.5 401.5,240.167 397.5,239.5C 397.5,238.5 397.5,237.5 397.5,236.5C 395.857,236.48 394.524,237.147 393.5,238.5C 392.833,237.5 392.167,236.5 391.5,235.5C 390.914,235.709 390.414,236.043 390,236.5C 390.132,232.967 388.465,230.967 385,230.5C 381.4,223.898 380.566,216.898 382.5,209.5C 384.309,206.78 386.643,204.78 389.5,203.5 Z M 413.5,203.5 C 429.157,202.875 434.824,210.208 430.5,225.5C 428.624,227.048 427.624,229.048 427.5,231.5C 426.448,231.351 425.448,231.517 424.5,232C 421.768,233.738 420.268,236.238 420,239.5C 419.092,237.561 417.592,236.561 415.5,236.5C 415.5,237.5 415.5,238.5 415.5,239.5C 411.5,240.167 409.833,238.5 410.5,234.5C 411.93,234.579 413.264,234.246 414.5,233.5C 415.48,230.914 415.813,228.247 415.5,225.5C 411.266,226.045 408.932,224.211 408.5,220C 409.795,215.924 410.628,211.757 411,207.5C 411.48,205.867 412.313,204.534 413.5,203.5 Z"/></g>
<g><path style="opacity:0.831" fill="#fefffe" d="M 156.5,167.5 C 161.116,171.152 165.783,174.819 170.5,178.5C 187.32,194.734 204.32,210.734 221.5,226.5C 210.875,237.938 203.208,251.272 198.5,266.5C 195.781,266.603 193.115,266.269 190.5,265.5C 166.458,257.48 142.458,249.48 118.5,241.5C 117.833,242.833 117.167,244.167 116.5,245.5C 116.167,244.833 115.833,244.167 115.5,243.5C 123.061,217.02 135.727,193.687 153.5,173.5C 154.549,171.472 155.549,169.472 156.5,167.5 Z M 161.5,196.5 C 162.773,197.077 162.773,197.743 161.5,198.5C 160.537,198.03 160.537,197.363 161.5,196.5 Z M 154.5,197.5 C 159.539,197.451 159.705,198.118 155,199.5C 154.536,198.906 154.369,198.239 154.5,197.5 Z M 150.5,200.5 C 152.975,200.747 152.975,201.413 150.5,202.5C 149.537,202.03 149.537,201.363 150.5,200.5 Z M 149.5,228.5 C 148,227.412 146.667,226.079 145.5,224.5C 144.749,225.376 144.249,226.376 144,227.5C 143.183,219.146 144.516,211.146 148,203.5C 148.395,205.179 148.228,206.845 147.5,208.5C 147.919,209.672 148.585,210.672 149.5,211.5C 148.404,217.138 148.404,222.805 149.5,228.5 Z M 179.5,203.5 C 180.478,203.811 181.145,204.478 181.5,205.5C 180.311,206.429 178.978,206.762 177.5,206.5C 176.26,212.514 176.26,218.514 177.5,224.5C 171.126,225.819 164.792,225.653 158.5,224C 156.102,219.138 156.102,214.305 158.5,209.5C 162.763,208.48 166.93,207.147 171,205.5C 171.833,205.833 172.667,206.167 173.5,206.5C 171.711,209.556 171.044,212.889 171.5,216.5C 172.675,216.719 173.675,216.386 174.5,215.5C 175.219,212.687 175.886,209.854 176.5,207C 177.544,205.826 178.544,204.659 179.5,203.5 Z M 181.5,210.5 C 183.176,211.183 183.843,212.517 183.5,214.5C 182.5,214.5 181.5,214.5 180.5,214.5C 180.5,215.833 180.5,217.167 180.5,218.5C 184.359,218.895 185.692,220.895 184.5,224.5C 179.392,220.733 178.392,216.066 181.5,210.5 Z M 185.5,225.5 C 187.465,225.948 187.798,226.948 186.5,228.5C 185.614,227.675 185.281,226.675 185.5,225.5 Z M 149.5,228.5 C 151.941,229.084 153.441,230.417 154,232.5C 152.933,231.809 151.766,231.309 150.5,231C 149.748,230.329 149.414,229.496 149.5,228.5 Z M 181.5,228.5 C 182.497,228.47 183.164,228.97 183.5,230C 182.004,231.331 180.671,232.831 179.5,234.5C 178.722,232.165 179.388,230.165 181.5,228.5 Z M 154.5,234.5 C 154.157,236.225 153.157,236.725 151.5,236C 148.5,235 146.5,233 145.5,230C 147.786,232.344 150.786,233.844 154.5,234.5 Z M 158.5,237.5 C 164.715,237.202 170.715,238.202 176.5,240.5C 172.167,241.833 167.833,241.833 163.5,240.5C 161.345,239.999 159.678,238.999 158.5,237.5 Z"/></g>
<g><path style="opacity:0.897" fill="#fefffe" d="M 276.5,209.5 C 314.52,205.507 343.687,219.174 364,250.5C 373.826,267.93 377.159,286.597 374,306.5C 371.026,320.445 365.359,333.112 357,344.5C 350.493,350.674 343.993,356.841 337.5,363C 330.136,366.34 322.803,369.673 315.5,373C 273.91,381.997 241.576,369.164 218.5,334.5C 197.955,289.013 207.288,251.347 246.5,221.5C 255.87,215.715 265.87,211.715 276.5,209.5 Z M 291.5,232.5 C 295.347,238.683 299.014,245.016 302.5,251.5C 308.571,247.34 314.904,243.674 321.5,240.5C 321.706,247.751 321.706,255.084 321.5,262.5C 329.174,262.334 336.841,262.5 344.5,263C 341.885,268.18 338.551,272.847 334.5,277C 333.713,279.099 333.38,281.266 333.5,283.5C 335.06,283.519 336.56,283.852 338,284.5C 342.651,286.957 347.151,289.791 351.5,293C 346.114,296.02 340.614,298.853 335,301.5C 333.699,302.098 332.865,303.098 332.5,304.5C 335.352,310.968 339.019,316.801 343.5,322C 336.174,322.5 328.841,322.666 321.5,322.5C 321.831,329.863 321.497,337.197 320.5,344.5C 314.222,341.208 308.222,337.541 302.5,333.5C 298.465,339.268 294.798,345.268 291.5,351.5C 290.098,351.135 289.098,350.301 288.5,349C 285.788,343.734 282.788,338.567 279.5,333.5C 273.825,337.51 267.825,340.843 261.5,343.5C 261.5,336.5 261.5,329.5 261.5,322.5C 254.137,322.831 246.803,322.497 239.5,321.5C 241.864,318.186 243.698,314.52 245,310.5C 246.726,308.985 248.226,307.318 249.5,305.5C 250.429,304.311 250.762,302.978 250.5,301.5C 247.933,301.145 245.433,300.479 243,299.5C 239.312,296.323 235.146,293.823 230.5,292C 233.82,289.301 237.654,287.468 242,286.5C 245.256,284.864 248.089,282.697 250.5,280C 246.818,274.323 243.151,268.656 239.5,263C 246.826,262.5 254.159,262.334 261.5,262.5C 261.169,255.137 261.503,247.803 262.5,240.5C 268.3,243.477 273.8,246.81 279,250.5C 280.365,250.156 281.532,249.489 282.5,248.5C 285.28,242.978 288.28,237.645 291.5,232.5 Z"/></g>
<g><path style="opacity:0.032" fill="#fefffe" d="M 465.5,241.5 C 466.782,242.708 466.782,244.042 465.5,245.5C 464.374,244.192 464.374,242.858 465.5,241.5 Z"/></g>
<g><path style="opacity:0.832" fill="#fefffe" d="M 113.5,246.5 C 114.5,246.5 115.5,246.5 116.5,246.5C 116.5,247.833 116.5,249.167 116.5,250.5C 143.235,257.348 169.901,264.515 196.5,272C 197.059,272.725 197.392,273.558 197.5,274.5C 197.108,280.689 196.108,286.689 194.5,292.5C 196.443,300.35 197.443,308.35 197.5,316.5C 169.481,323.838 141.481,331.171 113.5,338.5C 109.732,314.972 108.732,291.306 110.5,267.5C 111.967,260.564 112.967,253.564 113.5,246.5 Z M 134.5,272.5 C 134.414,271.504 134.748,270.671 135.5,270C 142.097,268.541 148.097,269.708 153.5,273.5C 154.357,274.736 155.023,276.069 155.5,277.5C 154.667,277.833 153.833,278.167 153,278.5C 150.638,276.728 148.138,275.061 145.5,273.5C 141.893,272.511 138.226,272.177 134.5,272.5 Z M 134.5,272.5 C 131.199,275.67 127.866,279.004 124.5,282.5C 123.225,286.084 122.225,289.751 121.5,293.5C 120.634,289.443 120.634,285.61 121.5,282C 123.303,280.129 124.636,277.962 125.5,275.5C 128.028,273.126 131.028,272.126 134.5,272.5 Z M 147.5,279.5 C 144.843,279.838 142.51,279.171 140.5,277.5C 140.667,277.167 140.833,276.833 141,276.5C 143.63,276.859 145.797,277.859 147.5,279.5 Z M 147.5,279.5 C 151.34,281.667 155.34,282.001 159.5,280.5C 158.275,286.866 160.608,291.199 166.5,293.5C 167.865,295.751 167.531,297.751 165.5,299.5C 164.12,298.024 162.453,297.024 160.5,296.5C 159.614,297.325 159.281,298.325 159.5,299.5C 160.675,299.281 161.675,299.614 162.5,300.5C 160.993,301.389 159.66,302.389 158.5,303.5C 158.719,302.325 158.386,301.325 157.5,300.5C 154.108,299.51 150.774,298.343 147.5,297C 146.331,294.993 145.665,292.827 145.5,290.5C 144.5,290.5 143.5,290.5 142.5,290.5C 141.983,296.443 144.65,300.276 150.5,302C 147.392,306.688 148.059,310.688 152.5,314C 140.496,315.332 133.829,309.999 132.5,298C 133.807,294.551 134.974,291.051 136,287.5C 138.133,285.909 139.799,283.909 141,281.5C 142.754,283.25 144.921,283.917 147.5,283.5C 147.5,282.167 147.5,280.833 147.5,279.5 Z M 122.5,303.5 C 121.086,301.956 120.753,300.289 121.5,298.5C 122.452,300.045 122.785,301.712 122.5,303.5 Z M 158.5,303.5 C 158.993,305.806 159.326,308.139 159.5,310.5C 158.448,310.649 157.448,310.483 156.5,310C 157.117,307.723 157.784,305.556 158.5,303.5 Z"/></g>
<g><path style="opacity:0.799" fill="#fefffe" d="M 468.5,333.5 C 467.942,332.21 466.942,331.377 465.5,331C 462.419,330.473 459.419,329.64 456.5,328.5C 433.245,322.736 409.912,317.403 386.5,312.5C 388.307,297.36 387.64,282.36 384.5,267.5C 412.415,260.715 440.415,254.048 468.5,247.5C 469.346,254.544 470.513,261.544 472,268.5C 472.667,284.5 472.667,300.5 472,316.5C 470.979,322.334 469.813,328 468.5,333.5 Z M 419.5,266.5 C 420.376,266.369 421.043,266.702 421.5,267.5C 419.88,269.739 420.213,271.573 422.5,273C 419.527,274.31 417.193,276.31 415.5,279C 414.056,279.781 412.723,279.614 411.5,278.5C 413.701,274.071 416.367,270.071 419.5,266.5 Z M 439.5,267.5 C 439.56,266.957 439.893,266.624 440.5,266.5C 444.457,269.732 447.457,273.732 449.5,278.5C 449.167,279.167 448.833,279.833 448.5,280.5C 449.729,281.281 451.062,281.781 452.5,282C 449.984,284.683 447.317,287.183 444.5,289.5C 443.417,288.635 443.251,287.635 444,286.5C 445.625,285.119 446.792,283.452 447.5,281.5C 445.736,278.008 443.069,275.341 439.5,273.5C 440.754,271.357 440.754,269.357 439.5,267.5 Z M 426.5,268.5 C 427.688,270.496 427.021,271.329 424.5,271C 425.381,270.292 426.047,269.458 426.5,268.5 Z M 435.5,271.5 C 436.077,270.227 436.743,270.227 437.5,271.5C 437.03,272.463 436.363,272.463 435.5,271.5 Z M 408.5,282.5 C 412.96,281.389 415.96,283.223 417.5,288C 417.167,288.5 416.833,289 416.5,289.5C 414.185,286.69 411.519,284.356 408.5,282.5 Z M 428.5,281.5 C 431.564,281.928 434.564,282.594 437.5,283.5C 438.339,286.495 439.673,289.328 441.5,292C 440,293.5 438.5,295 437,296.5C 435.263,295.38 433.429,294.38 431.5,293.5C 429.168,295.389 426.835,295.722 424.5,294.5C 423.808,295.025 423.308,295.692 423,296.5C 422.19,294.694 421.024,293.194 419.5,292C 421.091,288.978 422.758,286.144 424.5,283.5C 426.483,283.843 427.817,283.176 428.5,281.5 Z M 407.5,290.5 C 409.728,291.322 410.395,292.655 409.5,294.5C 408.295,293.423 407.628,292.09 407.5,290.5 Z M 450.5,291.5 C 454.133,291.443 454.3,292.443 451,294.5C 450.517,293.552 450.351,292.552 450.5,291.5 Z M 411.5,294.5 C 412.766,295.09 414.099,295.59 415.5,296C 413.537,296.844 412.204,296.344 411.5,294.5 Z M 447.5,294.5 C 448.043,294.56 448.376,294.893 448.5,295.5C 447.277,296.614 445.944,296.781 444.5,296C 445.737,295.768 446.737,295.268 447.5,294.5 Z M 427.5,296.5 C 430.815,297.329 434.148,298.162 437.5,299C 433.053,301.958 428.72,301.958 424.5,299C 425.942,298.623 426.942,297.79 427.5,296.5 Z M 406.5,299.5 C 406.735,298.903 407.235,298.57 408,298.5C 411.794,299.23 415.627,299.73 419.5,300C 415.113,300.706 410.78,300.54 406.5,299.5 Z"/></g>
<g><path style="opacity:0.932" fill="#fefffe" d="M 283.5,253.5 C 302.62,252.055 316.954,259.388 326.5,275.5C 332.954,291.832 330.621,306.666 319.5,320C 317.779,320.739 316.113,321.573 314.5,322.5C 313.561,324.053 312.394,325.387 311,326.5C 298.23,332.883 285.397,333.05 272.5,327C 252.409,312.712 247.576,294.212 258,271.5C 264.616,262.932 273.116,256.932 283.5,253.5 Z"/></g>
<g><path style="opacity:0.313" fill="#fefffe" d="M 152.5,283.5 C 156.04,283.377 158.04,285.043 158.5,288.5C 156.473,288.662 154.473,288.495 152.5,288C 151.587,286.586 151.587,285.086 152.5,283.5 Z"/></g>
<g><path style="opacity:0.829" fill="#fefffe" d="M 383.5,317.5 C 388.222,317.731 392.889,318.398 397.5,319.5C 414.428,325.135 431.428,330.468 448.5,335.5C 454.568,336.713 460.568,338.046 466.5,339.5C 463.928,352.286 459.594,364.452 453.5,376C 448.008,385.47 442.174,394.637 436,403.5C 433.112,407.747 429.612,411.414 425.5,414.5C 404.862,396.369 384.029,378.369 363,360.5C 362.333,358.833 362.333,357.167 363,355.5C 373.301,344.814 380.135,332.147 383.5,317.5 Z M 415.5,339.5 C 409.494,340.319 403.494,341.319 397.5,342.5C 396.689,343.216 396.022,344.05 395.5,345C 396.506,346.338 397.506,347.671 398.5,349C 403.04,349.947 407.374,349.447 411.5,347.5C 407.541,346.673 403.541,346.173 399.5,346C 403.833,345.333 408.167,345.333 412.5,346C 416.075,350.376 420.575,351.543 426,349.5C 427.482,351.112 429.315,352.112 431.5,352.5C 431.48,354.143 432.147,355.476 433.5,356.5C 430.855,360.835 429.522,360.502 429.5,355.5C 426.428,355.183 423.428,355.516 420.5,356.5C 418.441,357.951 417.441,359.951 417.5,362.5C 414.934,362.656 412.434,362.322 410,361.5C 407.918,359.044 405.751,356.711 403.5,354.5C 402.167,356.167 402.167,357.833 403.5,359.5C 405.156,361.46 406.823,363.46 408.5,365.5C 407.443,365.906 406.109,365.906 404.5,365.5C 404.499,361.748 402.833,360.748 399.5,362.5C 400.727,363.59 401.56,364.924 402,366.5C 403.586,367.376 405.086,368.376 406.5,369.5C 400.673,370.539 396.673,368.205 394.5,362.5C 393.833,358.833 393.167,355.167 392.5,351.5C 390.896,353.239 389.563,355.239 388.5,357.5C 390.122,360.321 391.289,363.321 392,366.5C 393.487,367.155 394.653,368.155 395.5,369.5C 393.665,370.192 391.832,369.858 390,368.5C 385.244,359.592 385.744,350.925 391.5,342.5C 398.944,337.117 406.944,336.117 415.5,339.5 Z M 419.5,362.5 C 422.002,363.779 424.502,363.779 427,362.5C 426.996,365.207 425.663,367.207 423,368.5C 422.5,368.333 422,368.167 421.5,368C 422.337,366.989 422.67,365.822 422.5,364.5C 420.821,364.715 419.821,364.048 419.5,362.5 Z M 396.5,370.5 C 397.289,370.783 397.956,371.283 398.5,372C 397.184,372.528 396.517,372.028 396.5,370.5 Z M 407.5,370.5 C 409.564,370.687 411.564,371.187 413.5,372C 412.5,372.167 411.5,372.333 410.5,372.5C 408.97,372.36 407.97,371.693 407.5,370.5 Z"/></g>
<g><path style="opacity:0.829" fill="#fefffe" d="M 194.5,321.5 C 196.5,321.5 198.5,321.5 200.5,321.5C 201.853,326.554 203.519,331.554 205.5,336.5C 210.061,344.558 215.561,351.892 222,358.5C 222.667,359.833 222.667,361.167 222,362.5C 202.251,381.754 182.085,400.42 161.5,418.5C 163.361,419.528 164.695,421.028 165.5,423C 166.833,423.667 168.167,423.667 169.5,423C 188.929,403.945 207.929,384.445 226.5,364.5C 234.172,369.657 242.006,374.657 250,379.5C 255.406,381.557 260.906,383.224 266.5,384.5C 259.295,412.522 251.962,440.522 244.5,468.5C 205.832,458.233 173.998,437.9 149,407.5C 135.096,389.038 124.263,368.704 116.5,346.5C 115.417,344.125 115.417,341.792 116.5,339.5C 117.396,342.144 118.229,344.81 119,347.5C 144.201,338.636 169.367,329.969 194.5,321.5 Z M 178.5,344.5 C 175.086,342.663 171.42,341.329 167.5,340.5C 172.596,338.394 176.263,339.727 178.5,344.5 Z M 164.5,341.5 C 165.376,341.369 166.043,341.702 166.5,342.5C 164.192,343.873 163.525,343.54 164.5,341.5 Z M 161.5,344.5 C 162.773,345.077 162.773,345.743 161.5,346.5C 160.537,346.03 160.537,345.363 161.5,344.5 Z M 178.5,344.5 C 182.419,345.614 184.586,348.281 185,352.5C 185.667,357.833 185.667,363.167 185,368.5C 184.184,369.823 183.017,370.489 181.5,370.5C 183.071,365.603 183.571,360.603 183,355.5C 182.275,354.941 181.442,354.608 180.5,354.5C 176.503,357 172.169,358.167 167.5,358C 169.584,357.303 171.251,356.136 172.5,354.5C 175.238,354.149 177.904,353.482 180.5,352.5C 180.833,351.667 181.167,350.833 181.5,350C 180.438,348.159 179.438,346.326 178.5,344.5 Z M 190.5,348.5 C 192.288,348.215 193.955,348.548 195.5,349.5C 194.667,349.833 193.833,350.167 193,350.5C 191.624,350.316 190.791,349.649 190.5,348.5 Z M 151.5,359.5 C 151.48,357.857 152.147,356.524 153.5,355.5C 151.926,354.016 150.593,352.349 149.5,350.5C 150.325,349.614 151.325,349.281 152.5,349.5C 152.579,351.666 153.246,353.666 154.5,355.5C 153.828,357.16 152.828,358.493 151.5,359.5 Z M 163.5,359.5 C 164.376,359.369 165.043,359.702 165.5,360.5C 161.538,363.504 160.871,363.17 163.5,359.5 Z M 158.5,362.5 C 159.773,363.077 159.773,363.743 158.5,364.5C 157.537,364.03 157.537,363.363 158.5,362.5 Z M 146.5,368.5 C 148.337,368.639 148.67,369.306 147.5,370.5C 146.702,370.043 146.369,369.376 146.5,368.5 Z M 142.5,370.5 C 145.548,370.494 146.048,371.494 144,373.5C 142.933,372.809 141.766,372.309 140.5,372C 141.416,371.722 142.082,371.222 142.5,370.5 Z M 181.5,370.5 C 181.103,372.662 179.769,373.995 177.5,374.5C 173.268,375.363 169.101,376.363 165,377.5C 164.833,377.167 164.667,376.833 164.5,376.5C 170.566,375.444 176.233,373.444 181.5,370.5 Z M 153.5,375.5 C 155.125,374.675 156.792,375.008 158.5,376.5C 158.333,376.833 158.167,377.167 158,377.5C 156.53,376.733 155.03,376.067 153.5,375.5 Z M 160.5,379.5 C 161.077,378.227 161.743,378.227 162.5,379.5C 162.03,380.463 161.363,380.463 160.5,379.5 Z M 163.5,382.5 C 164.675,382.281 165.675,382.614 166.5,383.5C 164.948,384.798 163.948,384.465 163.5,382.5 Z M 212.5,389.5 C 217.539,389.451 217.705,390.118 213,391.5C 212.536,390.906 212.369,390.239 212.5,389.5 Z M 218.5,390.5 C 220.035,389.212 221.701,389.212 223.5,390.5C 221.833,391.666 220.166,391.666 218.5,390.5 Z M 207.5,394.5 C 207.843,392.775 208.843,392.275 210.5,393C 209.756,394.039 208.756,394.539 207.5,394.5 Z M 227.5,395.5 C 229.332,396.14 229.665,397.14 228.5,398.5C 227.614,397.675 227.281,396.675 227.5,395.5 Z M 229.5,399.5 C 231.337,399.639 231.67,400.306 230.5,401.5C 229.702,401.043 229.369,400.376 229.5,399.5 Z M 204.5,404.5 C 206.344,405.204 206.844,406.537 206,408.5C 205.209,407.255 204.709,405.922 204.5,404.5 Z M 240.5,408.5 C 243.595,407.034 246.595,407.368 249.5,409.5C 248.311,410.429 246.978,410.762 245.5,410.5C 245.807,412.446 245.807,414.113 245.5,415.5C 243.074,413.625 241.407,411.291 240.5,408.5 Z M 208.5,408.5 C 212.728,409.936 213.061,411.603 209.5,413.5C 207.246,412.286 206.913,410.619 208.5,408.5 Z M 225.5,409.5 C 227.628,408.371 229.961,408.204 232.5,409C 231.975,409.692 231.308,410.192 230.5,410.5C 228.929,409.691 227.262,409.357 225.5,409.5 Z M 216.5,415.5 C 215.414,415.38 214.747,414.713 214.5,413.5C 214.859,410.718 216.192,410.052 218.5,411.5C 217.37,412.622 216.703,413.956 216.5,415.5 Z M 216.5,420.5 C 216.5,418.833 216.5,417.167 216.5,415.5C 219.65,415.118 222.317,413.784 224.5,411.5C 225.308,411.808 225.975,412.308 226.5,413C 224.893,414.049 224.227,415.549 224.5,417.5C 229.025,415.559 233.692,415.225 238.5,416.5C 234.999,417.945 231.999,419.945 229.5,422.5C 231.448,425.853 234.448,427.353 238.5,427C 234.833,427.667 231.167,427.667 227.5,427C 225.747,425.001 224.413,422.835 223.5,420.5C 221.167,420.5 218.833,420.5 216.5,420.5 Z M 211.5,417.5 C 213.76,418.238 213.927,419.238 212,420.5C 211.517,419.552 211.351,418.552 211.5,417.5 Z M 240.5,417.5 C 241.289,417.783 241.956,418.283 242.5,419C 241.184,419.528 240.517,419.028 240.5,417.5 Z M 201.5,418.5 C 204.001,418.511 204.168,419.178 202,420.5C 201.536,419.906 201.369,419.239 201.5,418.5 Z M 216.5,420.5 C 216.5,421.833 215.833,422.5 214.5,422.5C 214.833,421.5 215.5,420.833 216.5,420.5 Z M 214.5,422.5 C 214.068,423.71 213.401,424.71 212.5,425.5C 212.285,423.821 212.952,422.821 214.5,422.5 Z M 214.5,429.5 C 218.706,430.974 223.039,432.14 227.5,433C 227.833,433.333 228.167,433.667 228.5,434C 225.854,434.497 223.187,434.664 220.5,434.5C 220.33,435.822 220.663,436.989 221.5,438C 220.833,438.667 220.167,438.667 219.5,438C 217.247,435.53 215.58,432.697 214.5,429.5 Z"/></g>
<g><path style="opacity:0.035" fill="#fefffe" d="M 468.5,333.5 C 468.762,334.978 468.429,336.311 467.5,337.5C 467.167,336.833 466.833,336.167 466.5,335.5C 466.747,334.287 467.414,333.62 468.5,333.5 Z"/></g>
<g><path style="opacity:0.803" fill="#fefffe" d="M 355.5,362.5 C 356.978,362.238 358.311,362.571 359.5,363.5C 378.552,381.375 397.219,399.709 415.5,418.5C 417.514,420.018 419.514,420.685 421.5,420.5C 374.663,464.865 318.829,481.865 254,471.5C 251.085,470.734 248.252,469.734 245.5,468.5C 248.068,467.132 250.401,467.466 252.5,469.5C 259.039,442.217 265.372,414.883 271.5,387.5C 272,387.167 272.5,386.833 273,386.5C 288.661,389.182 304.161,388.515 319.5,384.5C 319.84,389.37 320.507,394.203 321.5,399C 326.584,421.617 331.917,444.117 337.5,466.5C 339.929,466.116 342.263,465.449 344.5,464.5C 337.182,436.939 330.182,409.272 323.5,381.5C 329.217,380.761 334.551,378.928 339.5,376C 344.491,372.394 349.491,368.728 354.5,365C 355.252,364.329 355.586,363.496 355.5,362.5 Z M 357.5,410.5 C 357.5,409.833 357.5,409.167 357.5,408.5C 355.984,407.1 354.317,405.767 352.5,404.5C 346.471,409.593 344.471,407.927 346.5,399.5C 344.876,399.36 343.71,400.027 343,401.5C 340.619,395.524 341.786,390.357 346.5,386C 354.818,382.497 361.151,384.664 365.5,392.5C 364.675,393.386 363.675,393.719 362.5,393.5C 362.666,398.511 362.499,403.511 362,408.5C 360.53,409.267 359.03,409.933 357.5,410.5 Z M 382.5,402.5 C 386.25,402.841 386.916,404.174 384.5,406.5C 385.025,407.192 385.692,407.692 386.5,408C 383.972,409.017 383.972,410.184 386.5,411.5C 384.536,414.492 383.369,417.492 383,420.5C 382.564,418.153 382.064,415.819 381.5,413.5C 382.042,409.865 382.375,406.199 382.5,402.5 Z M 294.5,404.5 C 295.5,404.5 296.5,404.5 297.5,404.5C 297.898,409.463 296.231,410.463 292.5,407.5C 293.193,406.482 293.859,405.482 294.5,404.5 Z M 348.5,413.5 C 348.313,415.564 347.813,417.564 347,419.5C 346.411,417.137 344.911,416.137 342.5,416.5C 341.387,412.493 341.387,408.493 342.5,404.5C 344.129,407.266 344.795,410.266 344.5,413.5C 345.833,413.5 347.167,413.5 348.5,413.5 Z M 348.5,413.5 C 349.072,411.745 349.906,410.078 351,408.5C 352.077,411.262 351.244,412.928 348.5,413.5 Z M 357.5,410.5 C 357.34,413.884 357.673,417.217 358.5,420.5C 357.996,423.865 357.329,427.198 356.5,430.5C 353.755,431.853 351.088,431.686 348.5,430C 350.81,429.503 353.143,429.337 355.5,429.5C 355.5,428.5 355.5,427.5 355.5,426.5C 351.264,426.48 347.264,425.48 343.5,423.5C 342.167,422.5 342.167,421.5 343.5,420.5C 345.167,421.167 346.833,421.833 348.5,422.5C 350.827,413.464 352.16,413.464 352.5,422.5C 353.822,422.67 354.989,422.337 356,421.5C 356.741,418.438 356.575,415.438 355.5,412.5C 355.855,411.478 356.522,410.811 357.5,410.5 Z M 277.5,411.5 C 278.606,414.077 280.606,415.744 283.5,416.5C 281.45,417.663 279.45,417.496 277.5,416C 276.587,414.586 276.587,413.086 277.5,411.5 Z M 297.5,413.5 C 297.209,414.649 296.376,415.316 295,415.5C 293.101,415.102 291.601,414.102 290.5,412.5C 291,412.167 291.5,411.833 292,411.5C 293.597,412.885 295.43,413.551 297.5,413.5 Z M 297.5,413.5 C 297.639,411.663 298.306,411.33 299.5,412.5C 299.043,413.298 298.376,413.631 297.5,413.5 Z M 288.5,413.5 C 289.773,414.077 289.773,414.743 288.5,415.5C 287.537,415.03 287.537,414.363 288.5,413.5 Z M 312.5,416.5 C 312.158,415.662 311.492,415.328 310.5,415.5C 311.183,413.824 312.517,413.157 314.5,413.5C 314.715,415.179 314.048,416.179 312.5,416.5 Z M 310.5,415.5 C 310.38,416.586 309.713,417.253 308.5,417.5C 307.833,417.167 307.167,416.833 306.5,416.5C 307.689,415.571 309.022,415.238 310.5,415.5 Z M 294.5,418.5 C 295.675,418.281 296.675,418.614 297.5,419.5C 296.899,423.159 296.233,426.826 295.5,430.5C 294.509,426.555 294.176,422.555 294.5,418.5 Z M 363.5,433.5 C 364.075,430.67 364.408,427.837 364.5,425C 363.768,423.235 362.435,422.068 360.5,421.5C 362.872,417.872 364.872,418.372 366.5,423C 366.265,426.956 365.265,430.456 363.5,433.5 Z M 310.5,420.5 C 311.797,421.849 311.63,423.182 310,424.5C 309.805,423.181 309.972,421.847 310.5,420.5 Z M 377.5,422.5 C 375.663,422.361 375.33,421.694 376.5,420.5C 377.298,420.957 377.631,421.624 377.5,422.5 Z M 274.5,428.5 C 274.201,426.396 274.534,424.396 275.5,422.5C 275.833,422.667 276.167,422.833 276.5,423C 275.891,424.948 275.224,426.782 274.5,428.5 Z M 377.5,422.5 C 381.554,422.21 382.054,422.877 379,424.5C 378.283,423.956 377.783,423.289 377.5,422.5 Z M 368.5,424.5 C 369.451,425.919 369.784,427.585 369.5,429.5C 370.873,429.343 372.207,429.51 373.5,430C 371.527,430.495 369.527,430.662 367.5,430.5C 367.517,428.435 367.85,426.435 368.5,424.5 Z M 306.5,425.5 C 308.975,425.747 308.975,426.413 306.5,427.5C 305.537,427.03 305.537,426.363 306.5,425.5 Z M 314.5,425.5 C 315.675,425.281 316.675,425.614 317.5,426.5C 315.04,430.239 315.04,434.072 317.5,438C 317.001,440.005 315.834,441.505 314,442.5C 314.263,441.049 314.096,439.716 313.5,438.5C 312.833,439.167 312.167,439.833 311.5,440.5C 310.643,439.264 309.977,437.931 309.5,436.5C 307.668,435.752 306.001,434.752 304.5,433.5C 301.527,434.693 301.027,434.027 303,431.5C 306.767,432.368 310.601,433.035 314.5,433.5C 314.5,430.833 314.5,428.167 314.5,425.5 Z M 373.5,426.5 C 377.613,424.967 378.113,425.633 375,428.5C 374.722,427.584 374.222,426.918 373.5,426.5 Z M 281.5,431.5 C 284.147,432.073 286.813,432.74 289.5,433.5C 287.576,433.567 285.576,433.9 283.5,434.5C 281.31,436.007 279.976,438.007 279.5,440.5C 278.07,440.421 276.736,440.754 275.5,441.5C 274.28,441.113 273.613,440.28 273.5,439C 275.697,435.969 278.363,433.469 281.5,431.5 Z M 306.5,442.5 C 301.519,442.621 299.353,440.287 300,435.5C 301.425,438.606 303.592,440.94 306.5,442.5 Z M 288.5,437.5 C 290.652,438.077 290.985,439.244 289.5,441C 287.325,442.181 285.158,443.348 283,444.5C 282.167,444.167 281.333,443.833 280.5,443.5C 282.842,442.329 285.176,441.162 287.5,440C 288.252,439.329 288.586,438.496 288.5,437.5 Z M 294.5,439.5 C 296.229,440.953 297.229,442.953 297.5,445.5C 299.637,446.868 301.97,447.868 304.5,448.5C 305.326,449.451 305.492,450.451 305,451.5C 299.351,453.488 293.518,453.988 287.5,453C 282.985,452.151 282.485,450.318 286,447.5C 288.264,450.653 291.431,451.986 295.5,451.5C 295.5,450.5 295.5,449.5 295.5,448.5C 294.167,448.5 292.833,448.5 291.5,448.5C 291.439,445.049 292.439,442.049 294.5,439.5 Z M 306.5,442.5 C 307.978,442.238 309.311,442.571 310.5,443.5C 309.833,443.833 309.167,444.167 308.5,444.5C 307.287,444.253 306.62,443.586 306.5,442.5 Z"/></g>
<g><path style="opacity:0.062" fill="#fefffe" d="M 357.5,408.5 C 357.281,407.325 357.614,406.325 358.5,405.5C 359.798,407.052 359.465,408.052 357.5,408.5 Z"/></g>
</svg>
