<?xml version="1.0" encoding="UTF-8"?>
<!DOCTYPE svg PUBLIC "-//W3C//DTD SVG 1.1//EN" "http://www.w3.org/Graphics/SVG/1.1/DTD/svg11.dtd">
<svg xmlns="http://www.w3.org/2000/svg" version="1.1" width="595px" height="595px" style="shape-rendering:geometricPrecision; text-rendering:geometricPrecision; image-rendering:optimizeQuality; fill-rule:evenodd; clip-rule:evenodd" xmlns:xlink="http://www.w3.org/1999/xlink">
<g><path style="opacity:0.975" fill="#fefffe" d="M 298.5,54.5 C 299.693,54.9704 300.36,55.9704 300.5,57.5C 305.442,86.816 310.275,116.149 315,145.5C 318.318,152.136 321.651,158.802 325,165.5C 326.13,185.508 327.297,205.508 328.5,225.5C 346.503,225.333 364.503,225.5 382.5,226C 386.05,229.883 389.217,234.049 392,238.5C 393.637,240.81 395.804,242.31 398.5,243C 441.519,250.225 484.519,257.559 527.5,265C 486.573,268.852 445.573,272.186 404.5,275C 402.567,275.251 400.734,275.751 399,276.5C 395.167,282.833 391.333,289.167 387.5,295.5C 367.845,296.5 348.178,296.833 328.5,296.5C 328.667,308.505 328.5,320.505 328,332.5C 323,342.5 318,352.5 313,362.5C 312.667,384.167 312.333,405.833 312,427.5C 308.088,435.657 303.922,443.657 299.5,451.5C 295.078,443.657 290.912,435.657 287,427.5C 286.667,405.833 286.333,384.167 286,362.5C 281,352.5 276,342.5 271,332.5C 270.5,320.505 270.333,308.505 270.5,296.5C 250.831,296.667 231.164,296.5 211.5,296C 207.698,289.368 203.698,282.868 199.5,276.5C 197.922,275.702 196.256,275.202 194.5,275C 153.427,272.186 112.427,268.852 71.5,265C 114.443,257.343 157.443,250.01 200.5,243C 202.848,242.654 204.681,241.487 206,239.5C 209.118,234.714 212.618,230.214 216.5,226C 234.497,225.5 252.497,225.333 270.5,225.5C 271.491,205.494 272.657,185.494 274,165.5C 277.887,158.394 281.22,151.061 284,143.5C 289.052,113.857 293.885,84.1907 298.5,54.5 Z"/></g>
<g><path style="opacity:0.975" fill="#fefffe" d="M 277.5,82.5 C 280.247,82.1866 282.914,82.52 285.5,83.5C 282.892,96.3724 280.226,109.206 277.5,122C 251.212,125.979 227.545,135.979 206.5,152C 201.017,156.906 195.351,161.572 189.5,166C 207.362,184.195 225.528,202.029 244,219.5C 244.667,220.167 244.667,220.833 244,221.5C 220.027,213.509 196.027,205.509 172,197.5C 171.055,197.905 170.388,198.572 170,199.5C 166.918,212.315 165.418,225.315 165.5,238.5C 152.167,240.167 138.833,241.833 125.5,243.5C 120.167,222.841 120.167,202.174 125.5,181.5C 125.167,180.833 124.833,180.167 124.5,179.5C 114.763,176.199 104.929,173.199 95,170.5C 91.0717,174.682 88.405,179.682 87,185.5C 81.8888,202.27 84.3888,217.77 94.5,232C 69.3367,218.847 49.17,200.014 34,175.5C 29.2335,167.207 25.2335,158.54 22,149.5C 21.3333,143.167 21.3333,136.833 22,130.5C 26.6968,116.125 36.5302,110.958 51.5,115C 85.8306,119.72 117.831,130.887 147.5,148.5C 174.497,120.823 206.497,100.989 243.5,89C 254.792,85.846 266.126,83.6794 277.5,82.5 Z"/></g>
<g><path style="opacity:0.974" fill="#fefffe" d="M 315.5,82.5 C 344.702,83.8006 372.035,91.6339 397.5,106C 418.012,117.671 436.679,131.838 453.5,148.5C 476.595,134.074 501.595,124.241 528.5,119C 537.884,116.723 547.384,115.223 557,114.5C 573.2,115.045 580.7,123.545 579.5,140C 577.693,153.124 573.193,165.29 566,176.5C 550.484,200.209 530.651,218.542 506.5,231.5C 519.913,210.815 519.58,190.482 505.5,170.5C 494.961,173.381 484.628,176.714 474.5,180.5C 477.609,190.929 478.942,201.596 478.5,212.5C 479.12,222.775 477.787,232.775 474.5,242.5C 473.667,242.833 472.833,243.167 472,243.5C 459.524,241.599 447.024,239.932 434.5,238.5C 435.043,224.639 433.71,210.972 430.5,197.5C 405.773,204.798 381.273,212.798 357,221.5C 356.333,220.833 356.333,220.167 357,219.5C 374.707,201.626 392.541,183.959 410.5,166.5C 386.062,142.281 356.728,127.614 322.5,122.5C 320.167,109.168 317.834,95.8344 315.5,82.5 Z"/></g>
<g><path style="opacity:0.526" fill="#fefffe" d="M 135.5,284.5 C 147.913,284.681 160.247,285.681 172.5,287.5C 176.932,312.376 188.599,333.043 207.5,349.5C 182.384,340.123 161.551,324.457 145,302.5C 141.044,296.921 137.877,290.921 135.5,284.5 Z M 197.5,343.5 C 171.843,331.012 152.177,312.178 138.5,287C 149.526,286.854 160.526,287.354 171.5,288.5C 174.548,309.592 183.215,327.925 197.5,343.5 Z"/></g>
<g><path style="opacity:0.522" fill="#fefffe" d="M 453.5,284.5 C 457.514,284.334 461.514,284.501 465.5,285C 449.756,315.629 425.923,337.462 394,350.5C 393.333,349.833 393.333,349.167 394,348.5C 412.756,331.991 423.923,311.324 427.5,286.5C 436.343,286.179 445.009,285.512 453.5,284.5 Z M 450.5,286.5 C 454.514,286.334 458.514,286.501 462.5,287C 448.804,312.705 428.804,331.371 402.5,343C 417.208,327.75 426.208,309.583 429.5,288.5C 436.656,287.986 443.656,287.319 450.5,286.5 Z"/></g>
<g><path style="opacity:0.927" fill="#fefffe" d="M 235.5,415.5 C 236.117,415.611 236.617,415.944 237,416.5C 238.838,423.186 240.671,429.852 242.5,436.5C 248.868,436.17 255.202,436.504 261.5,437.5C 259.095,443.051 257.095,448.717 255.5,454.5C 250.969,454.754 246.636,455.754 242.5,457.5C 240.617,462.658 238.45,467.658 236,472.5C 233.33,466.655 231.164,460.655 229.5,454.5C 224.167,454.5 218.833,454.5 213.5,454.5C 212.167,448.833 210.833,443.167 209.5,437.5C 215.509,437.666 221.509,437.499 227.5,437C 230.464,429.942 233.13,422.776 235.5,415.5 Z"/></g>
<g><path style="opacity:0.927" fill="#fefffe" d="M 358.5,415.5 C 361.429,421.843 363.763,428.51 365.5,435.5C 371.833,436.167 378.167,436.833 384.5,437.5C 382.431,442.873 380.264,448.207 378,453.5C 373.818,454.781 369.651,456.114 365.5,457.5C 363.617,462.658 361.45,467.658 359,472.5C 356.691,466.568 354.191,460.734 351.5,455C 346.511,454.501 341.511,454.334 336.5,454.5C 335.009,448.868 333.675,443.201 332.5,437.5C 338.509,437.666 344.509,437.499 350.5,437C 353.464,429.942 356.13,422.776 358.5,415.5 Z"/></g>
<g><path style="opacity:0.93" fill="#fefffe" d="M 299.5,474.5 C 300.75,474.577 301.583,475.244 302,476.5C 303.524,482.598 305.358,488.598 307.5,494.5C 313.799,494.94 320.132,495.107 326.5,495C 324.214,501.201 321.547,507.201 318.5,513C 314.781,513.388 311.114,514.055 307.5,515C 305.338,520.15 303.171,525.316 301,530.5C 298.022,525.075 295.522,519.409 293.5,513.5C 288.282,512.811 283.116,512.144 278,511.5C 276.654,506.448 275.154,501.448 273.5,496.5C 279.833,495.833 286.167,495.167 292.5,494.5C 295.239,487.949 297.572,481.282 299.5,474.5 Z"/></g>
</svg>
